<svg width="365" height="481" viewBox="0 0 365 481" fill="none" xmlns="http://www.w3.org/2000/svg">
    <path fill-rule="evenodd" clip-rule="evenodd" d="M118.945 0.941358C98.9471 4.37836 78.9032 11.8944 64.9812 21.1764C62.6132 22.7544 59.5892 24.7734 58.2612 25.6634C47.9502 32.5634 29.9211 52.1844 22.6321 64.4374C14.7301 77.7224 5.75514 100.316 6.02814 106.239C6.07414 107.233 6.75414 105.392 7.53914 102.149C8.32314 98.9054 9.74814 95.6094 10.7051 94.8254C11.6621 94.0404 11.8831 93.6834 11.1951 94.0314C10.5081 94.3794 9.94514 94.1874 9.94514 93.6054C9.94514 93.0234 10.3651 92.5464 10.8781 92.5464C11.3911 92.5464 12.1161 91.5344 12.4891 90.2964C18.6901 69.7504 37.7962 43.9194 58.4292 28.1874C72.4462 17.5004 93.1501 8.24936 112.616 3.97536C122.457 1.81436 148.506 0.999362 160.534 2.47536C170.389 3.68436 188.893 7.87536 198.445 11.0604C206.532 13.7584 224.889 22.9364 232.445 28.0604C236.295 30.6714 239.982 32.8244 240.639 32.8434C241.296 32.8634 241.746 33.3674 241.639 33.9634C241.532 34.5584 242.228 34.9844 243.184 34.9094C244.141 34.8344 244.717 35.1064 244.465 35.5144C243.774 36.6314 248.645 40.8494 249.802 40.1344C250.355 39.7934 251.132 40.0404 251.53 40.6844C252.02 41.4774 251.8 41.5944 250.85 41.0464C250.077 40.6014 250.767 41.6564 252.382 43.3914C255.446 46.6834 256.593 47.4284 255.312 45.2964C254.802 44.4474 255.103 44.4864 256.253 45.4184C257.184 46.1734 257.945 47.0364 257.945 47.3354C257.945 47.6344 257.666 47.6014 257.326 47.2604C256.985 46.9204 256.053 47.2954 255.255 48.0944C253.211 50.1374 252.154 49.9034 251.643 47.2964C251.401 46.0584 251.257 47.7414 251.324 51.0344C251.428 56.1784 251.727 57.0764 253.445 57.4014C254.545 57.6104 257.134 59.3034 259.198 61.1634C261.262 63.0244 263.287 64.5324 263.698 64.5144C264.109 64.4974 263.207 63.5594 261.695 62.4314C258.28 59.8834 258.033 57.7194 261.41 59.9314C262.765 60.8194 264.768 61.5464 265.86 61.5464C266.952 61.5464 268.352 62.3334 268.971 63.2964C269.988 64.8794 270.041 64.8554 269.518 63.0464C268.955 61.0994 268.979 61.0964 270.411 62.9434C271.219 63.9874 271.654 65.2074 271.378 65.6554C271.101 66.1034 272.219 69.0744 273.862 72.2584C275.505 75.4414 276.87 77.6864 276.897 77.2464C276.923 76.8074 276.237 75.0774 275.371 73.4034C274.506 71.7304 274.036 70.1214 274.328 69.8294C274.62 69.5374 275.632 70.9194 276.577 72.9004C278.207 76.3194 278.205 76.6024 276.525 78.4584C275.551 79.5344 274.142 82.1314 273.394 84.2304C271.721 88.9194 271.538 101.453 273.086 105.249C276.218 112.93 277.194 114.578 280.03 116.964C281.717 118.384 283.808 119.546 284.676 119.546C286.062 119.546 286.175 121.034 285.609 131.796C284.478 153.322 280.251 166.568 267.106 189.788C258.239 205.452 243.736 222.401 228.945 234.385C225.92 236.836 223.22 239.134 222.945 239.491C222.67 239.847 219.52 242.35 215.945 245.052C197.974 258.635 187.291 271.008 183.348 282.807C181.463 288.446 181.002 300.164 182.384 307.296C183.166 311.328 183.086 311.549 180.827 311.61C174.752 311.773 159.446 311.381 159.119 311.053C158.918 310.852 157.879 303.118 156.811 293.867C155.743 284.615 154.432 275.921 153.897 274.546C152.968 272.156 152.944 272.178 153.356 275.046C154.886 285.71 157.2 310.624 156.706 311.118C156.378 311.446 154.357 311.949 152.214 312.237L148.319 312.759L148.353 303.903C148.426 285.611 144.473 280.654 121.445 270.152C113.195 266.389 102.909 261.339 98.5871 258.928C94.2651 256.518 90.5351 254.546 90.2971 254.546C90.0591 254.546 88.6451 253.713 87.1551 252.695C85.6641 251.677 81.7451 249.089 78.4451 246.945C63.8781 237.479 43.2212 218.845 34.7672 207.546C33.3272 205.621 31.3161 203.143 30.2971 202.04C29.2781 200.937 27.3581 198.012 26.0281 195.54C24.6991 193.068 22.3371 189.165 20.7781 186.866C19.2201 184.567 17.9451 182.204 17.9451 181.616C17.9451 181.027 17.4681 180.546 16.8861 180.546C16.3041 180.546 16.1171 180.076 16.4721 179.502C16.8271 178.928 16.6621 177.91 16.1061 177.24C15.5501 176.57 14.1371 173.327 12.9671 170.034C11.7971 166.741 10.4131 163.265 9.89215 162.31C9.37115 161.355 8.94514 159.667 8.94514 158.56C8.94514 157.452 8.43914 156.546 7.82014 156.546C6.05414 156.546 7.45715 161.617 12.6201 173.905C17.1971 184.799 18.5411 187.311 25.8121 198.546C38.2331 217.738 61.8841 239.021 87.9451 254.456C93.7201 257.877 107.543 265.13 118.662 270.573C136.414 279.265 139.249 280.982 141.915 284.663C145.931 290.207 147.3 295.456 147.1 304.546C146.981 309.942 146.509 312.362 145.418 313.173C144.122 314.135 144.42 314.755 147.457 317.423C149.414 319.141 151.786 320.582 152.73 320.625C153.673 320.668 153.913 320.921 153.263 321.186C151.829 321.77 146.8 319.282 144.979 317.087C143.776 315.638 143.483 315.654 141.699 317.268C139.16 319.567 136.945 323.888 136.945 326.546C136.945 329.364 139.684 334.534 142.64 337.296C143.964 338.533 144.665 339.546 144.197 339.546C143.728 339.546 142.876 339.077 142.303 338.504C140.774 336.975 138.861 339.714 138.284 344.257C137.557 349.974 142.324 356.883 149.205 360.087C152.087 361.429 154.94 362.531 155.545 362.536C156.15 362.542 158.537 363.917 160.851 365.593L165.056 368.639L169.9 364.583C172.564 362.353 176.477 359.814 178.595 358.941C182.868 357.18 187.137 353.666 186.418 352.502C186.162 352.088 187.306 350.3 188.961 348.529L191.97 345.308L189.488 345.783C188.122 346.044 187.243 345.872 187.534 345.402C187.825 344.931 188.834 344.546 189.777 344.546C190.719 344.546 192.279 343.082 193.242 341.293C195.361 337.358 194.674 332.145 191.587 328.743C189.877 326.859 189.75 326.285 190.888 325.581C191.653 325.108 192.334 323.067 192.401 321.045C192.497 318.142 191.92 316.862 189.657 314.957C188.081 313.631 186.151 312.546 185.368 312.546C184.358 312.546 183.949 311.312 183.96 308.296C183.971 305.209 184.237 304.457 184.932 305.546C185.582 306.565 185.688 305.764 185.262 303.046C184.918 300.846 184.205 298.764 183.679 298.418C183.078 298.024 183.174 295.119 183.936 290.599C186.505 275.371 195.804 262.703 215.267 247.918C236.16 232.047 250.575 217.474 263.112 199.546C278.525 177.506 287.979 148.902 288.395 123.046L288.588 111.046L293.516 110.384C301.434 109.319 310.653 109.456 313.332 110.677C315.455 111.644 315.909 112.7 316.475 117.979C317.366 126.3 316.89 128.959 314.445 129.325C308.71 130.182 307.754 130.76 306.299 134.24C304.145 139.396 305.333 149.025 308.517 152.209C311.062 154.754 312.177 154.95 322.069 154.593L328.694 154.354L329.569 159.093C331.186 167.842 337.499 167.958 337.387 159.238C337.329 154.73 337.367 154.677 341.426 153.655C343.68 153.088 346.599 151.479 347.913 150.08C349.991 147.868 350.279 146.665 350.119 140.858C349.907 133.171 348.292 130.001 344.121 129.085C341.253 128.455 341.218 128.36 339.997 117.748C339.32 111.862 338.51 106.371 338.197 105.546C337.884 104.721 337.716 103.656 337.825 103.179C338.323 100.999 335.538 95.4344 332.263 92.0614C325.452 85.0494 321.926 84.1654 301.126 84.2634C284.929 84.3394 282.745 84.1584 282.275 82.6974C281.21 79.3884 274.935 67.5134 271.404 62.1234C270.057 60.0674 270.066 59.6904 271.499 58.5014C272.834 57.3934 273.233 57.4114 273.919 58.6104C277.38 64.6584 279.52 67.5464 280.539 67.5464C281.195 67.5464 281.99 68.2214 282.307 69.0464C283.034 70.9414 287.827 71.0164 288.546 69.1434C289.193 67.4574 285.962 60.8124 281.325 54.2944C279.466 51.6804 277.945 49.3574 277.945 49.1324C277.945 48.9064 279.685 48.4284 281.811 48.0694C283.937 47.7094 287.151 46.1854 288.953 44.6804C291.848 42.2644 292.092 41.6894 291.052 39.7464C289.45 36.7524 284.66 36.8764 279.101 40.0534C273.263 43.3914 270.637 42.6474 268.5 37.0524C266.85 32.7304 260.97 25.5464 259.084 25.5464C257.808 25.5464 254.945 28.3904 254.945 29.6574C254.945 31.3404 258.744 38.1544 261.525 41.4594C264.079 44.4944 264.117 44.7004 262.363 45.9824C260.717 47.1864 259.793 46.6544 253.485 40.8734C246.885 34.8234 243.784 32.5874 229.233 23.3854C213.667 13.5404 192.046 5.33136 172.776 1.94936C161.169 -0.0886391 128.495 -0.699642 118.945 0.941358ZM212.945 21.1564C212.945 21.6744 220.112 24.8464 223.945 26.0254C225.32 26.4484 226.176 26.5074 225.847 26.1554C225.014 25.2664 212.945 20.5894 212.945 21.1564ZM239.945 38.0464C241.237 39.4214 243.003 40.5174 243.869 40.4834C244.938 40.4404 244.766 40.1454 243.334 39.5664C242.173 39.0974 240.95 38.0014 240.615 37.1304C240.281 36.2594 239.465 35.5464 238.802 35.5464C238.139 35.5464 238.653 36.6714 239.945 38.0464ZM247.103 44.5464C247.103 45.9214 247.33 46.4844 247.607 45.7964C247.885 45.1094 247.885 43.9844 247.607 43.2964C247.33 42.6094 247.103 43.1714 247.103 44.5464ZM273.752 69.0724C273.444 69.3804 272.885 68.8254 272.509 67.8394C271.967 66.4144 272.081 66.2994 273.069 67.2794C273.753 67.9584 274.06 68.7654 273.752 69.0724ZM312.195 80.2624C313.708 80.4914 316.182 80.4914 317.695 80.2624C319.208 80.0334 317.97 79.8464 314.945 79.8464C311.92 79.8464 310.683 80.0334 312.195 80.2624ZM321.758 80.2294C322.479 80.5184 323.342 80.4824 323.674 80.1504C324.006 79.8184 323.416 79.5824 322.362 79.6254C321.197 79.6734 320.96 79.9104 321.758 80.2294ZM267.552 92.7964C266.797 97.9784 268.234 107.269 270.454 111.563C271.355 113.306 272.286 114.538 272.523 114.301C272.76 114.064 272.236 112.431 271.358 110.672C269.393 106.732 268.036 97.3274 268.708 92.2964C268.983 90.2344 268.975 88.5464 268.69 88.5464C268.405 88.5464 267.893 90.4584 267.552 92.7964ZM317.553 98.2964C318.424 99.4444 318.892 99.5994 318.913 98.7464C318.959 96.8864 322.227 98.8624 322.531 100.934C322.835 103.004 322.45 102.969 317.258 100.455C314.882 99.3054 313.192 97.9554 313.501 97.4554C314.383 96.0284 316.102 96.3854 317.553 98.2964ZM296.707 99.2334C295.751 99.4834 293.951 99.4924 292.707 99.2534C291.463 99.0144 292.245 98.8094 294.445 98.7984C296.645 98.7874 297.663 98.9834 296.707 99.2334ZM326.945 104.605C326.945 105.123 326.27 105.546 325.445 105.546C323.899 105.546 323.458 104.366 324.584 103.24C325.383 102.441 326.945 103.344 326.945 104.605ZM4.44514 113.546C4.06114 115.82 3.95615 117.891 4.21315 118.147C4.46915 118.403 4.97914 116.738 5.34514 114.446C5.71114 112.154 5.81615 110.084 5.57715 109.845C5.33915 109.606 4.82914 111.272 4.44514 113.546ZM329.478 115.796C329.901 118.097 329.78 119.546 329.163 119.546C327.82 119.546 326.945 117.069 326.945 113.264C326.945 109.207 328.565 110.826 329.478 115.796ZM277.531 119.911C277.819 120.661 279.125 121.763 280.433 122.358C282.069 123.104 282.937 124.471 283.218 126.744C283.624 130.038 283.625 130.037 283.785 126.271C283.92 123.092 283.55 122.346 281.445 121.546C280.07 121.023 278.945 120.134 278.945 119.571C278.945 119.007 278.509 118.546 277.976 118.546C277.444 118.546 277.243 119.16 277.531 119.911ZM329.445 123.546C329.081 124.693 329.265 125.546 329.878 125.546C330.465 125.546 330.945 126.221 330.945 127.046C330.945 127.879 330.056 128.546 328.945 128.546C326.693 128.546 326.52 127.795 327.92 124.111C329.064 121.102 330.375 120.616 329.445 123.546ZM3.55214 126.128C2.55714 128.722 2.86414 135.378 4.01214 136.087C5.76014 137.168 6.45915 135.599 5.15715 133.514C3.68715 131.16 3.58014 127.89 4.94514 127.046C6.18614 126.279 6.26014 124.546 5.05214 124.546C4.56114 124.546 3.88614 125.258 3.55214 126.128ZM350.022 132.971C351.784 136.967 352.078 139.004 351.579 143.774C351.184 147.55 351.319 149.433 351.955 149.04C354.476 147.482 352.47 132.94 349.266 129.546C348.44 128.671 348.755 130.097 350.022 132.971ZM4.56514 143.546C4.76214 145.471 4.92814 147.834 4.93414 148.796C4.94014 149.758 5.39514 150.546 5.94514 150.546C6.49514 150.546 6.94514 149.196 6.94514 147.546C6.94514 145.896 6.52514 144.546 6.01114 144.546C5.49814 144.546 4.88214 143.534 4.64314 142.296C4.40314 141.058 4.36914 141.621 4.56514 143.546ZM337.6 141.089C338.358 143.065 337.651 143.754 335.651 142.987C334.782 142.653 334.316 141.743 334.615 140.963C335.332 139.094 336.859 139.158 337.6 141.089ZM330.945 142.046C330.945 142.879 330.056 143.546 328.945 143.546C327.834 143.546 326.945 142.879 326.945 142.046C326.945 141.213 327.834 140.546 328.945 140.546C330.056 140.546 330.945 141.213 330.945 142.046ZM340.945 142.105C340.945 142.962 340.488 143.381 339.929 143.036C339.37 142.69 339.171 141.989 339.488 141.477C340.345 140.09 340.945 140.348 340.945 142.105ZM320.945 142.546C320.945 143.096 320.747 143.546 320.504 143.546C320.261 143.546 319.785 143.096 319.445 142.546C319.105 141.996 319.304 141.546 319.886 141.546C320.468 141.546 320.945 141.996 320.945 142.546ZM0.706145 147.596C1.33914 148.448 2.16115 151.045 2.53215 153.368C2.90415 155.69 3.54214 157.797 3.95114 158.05C5.37314 158.928 2.73414 149.037 1.14914 147.546C-0.272862 146.208 -0.320855 146.214 0.706145 147.596ZM6.10315 153.546C6.10315 154.921 6.33015 155.484 6.60715 154.796C6.88515 154.109 6.88515 152.984 6.60715 152.296C6.33015 151.609 6.10315 152.171 6.10315 153.546ZM335.261 159.796C335.022 160.209 334.404 160.546 333.886 160.546C332.784 160.546 332.615 157.209 333.664 156.161C334.479 155.346 335.928 158.643 335.261 159.796ZM321.613 167.799C319.362 169.445 318.283 176.043 319.938 178.038C321.522 179.946 325.333 179.988 326.888 178.115C327.817 176.995 327.683 175.578 326.276 171.615C324.315 166.093 324.141 165.951 321.613 167.799ZM323.945 171.987C323.945 173.33 324.395 174.706 324.945 175.046C326.616 176.079 326.064 177.546 324.004 177.546C321.401 177.546 320.665 176.098 321.45 172.522C322.238 168.937 323.945 168.571 323.945 171.987ZM266.882 178.024C263.841 184.731 263.29 186.628 264.857 184.996C266.009 183.797 270.977 171.546 270.312 171.546C270.041 171.546 268.498 174.461 266.882 178.024ZM332.303 177.296C332.574 178.258 333.09 180.508 333.45 182.296C334.075 185.402 335.951 186.909 335.939 184.296C335.927 181.56 333.79 175.546 332.831 175.546C332.269 175.546 332.032 176.334 332.303 177.296ZM9.94514 182.134C9.94514 183.107 18.3921 195.432 18.7881 195.036C19.1721 194.652 10.9311 181.546 10.3061 181.546C10.1071 181.546 9.94514 181.811 9.94514 182.134ZM176.093 196.308C173.986 209.802 172.976 222.69 173.096 234.546C173.205 245.305 173.292 244.757 174.445 226.046C175.124 215.046 176.243 202.313 176.933 197.751C177.624 193.189 177.989 189.256 177.745 189.013C177.501 188.769 176.758 192.052 176.093 196.308ZM324.73 194.094C324.003 194.821 325.986 202.546 326.9 202.546C328.547 202.546 328.782 201.128 327.542 198.669C326.815 197.226 326.42 195.484 326.666 194.796C327.111 193.547 325.766 193.059 324.73 194.094ZM335.33 201.296C335.616 202.258 336.145 204.284 336.506 205.796C336.867 207.308 337.619 208.546 338.178 208.546C338.807 208.546 338.919 207.305 338.473 205.296C338.076 203.508 337.719 201.484 337.681 200.796C337.643 200.109 336.981 199.546 336.211 199.546C335.346 199.546 335.009 200.215 335.33 201.296ZM247.534 203.623C246.11 205.315 244.945 207.215 244.945 207.845C244.945 208.475 245.719 207.878 246.664 206.519C247.61 205.159 249.297 203.273 250.414 202.329C251.531 201.385 251.923 200.598 251.284 200.579C250.645 200.561 248.958 201.931 247.534 203.623ZM345.107 215.118C345.043 218.292 345.387 219.565 346.23 219.283C347.78 218.765 347.866 210.549 346.322 210.547C345.668 210.547 345.16 212.456 345.107 215.118ZM333.96 235.296C333.976 239.043 335.341 242.484 336.394 241.43C337.244 240.581 335.795 231.546 334.809 231.546C334.334 231.546 333.952 233.234 333.96 235.296ZM322.945 261.046C322.945 264.071 323.362 266.546 323.872 266.546C325.101 266.546 325.538 263.971 325.096 259.335C324.545 253.551 322.945 254.824 322.945 261.046ZM329.945 269.487C329.945 273.142 331.241 275.588 332.236 273.812C332.963 272.517 331.782 265.546 330.836 265.546C330.346 265.546 329.945 267.319 329.945 269.487ZM336.673 305.296C335.925 306.735 337.154 315.546 338.103 315.546C338.633 315.546 338.925 313.09 338.758 310.046C338.485 305.057 337.712 303.297 336.673 305.296ZM161.195 327.252C159.957 327.49 157.933 327.49 156.695 327.252C155.457 327.013 156.47 326.818 158.945 326.818C161.42 326.818 162.433 327.013 161.195 327.252ZM132.165 345.171C128.175 348.293 128.121 349.823 131.905 352.518C134.363 354.268 134.718 355.013 133.997 356.91C133.218 358.957 131.562 371.691 128.841 396.546C126.962 413.711 126.754 418.12 127.664 421.546L128.594 425.046L134.644 425.041L140.693 425.037L141.366 432.041C143.184 450.995 143.768 453.266 147.748 456.868C150.568 459.42 162.211 460.951 166.868 459.382C168.835 458.719 173.871 458.296 178.057 458.443C193.441 458.98 198.389 455.202 197.562 443.546C196.539 429.117 196.245 420.512 196.795 421.062C197.114 421.382 197.841 423.084 198.41 424.844C199.324 427.673 199.888 428.058 203.247 428.149C207.639 428.268 211.945 425.436 211.945 422.429C211.945 421.344 211.304 417.665 210.52 414.252C209.736 410.838 208.568 404.671 207.923 400.546C206.67 392.527 202.277 373.518 199.025 362.046L197.042 355.046L199.243 353.335L201.445 351.625L197.728 347.885C193.401 343.532 191.214 344.13 195.417 348.517L198.244 351.467L195.018 353.257C186.281 358.103 176.718 365.142 171.522 370.551L165.757 376.553L161.3 371.596C158.848 368.869 153.153 364.336 148.644 361.523C136.678 354.058 131.061 350.152 130.999 349.251C130.97 348.813 132.097 347.303 133.506 345.894C136.937 342.463 136.16 342.044 132.165 345.171ZM174.445 348.029C177.745 348.038 181.795 347.683 183.445 347.24L186.445 346.434L183.945 348.24C182.041 349.615 179.101 350.129 171.615 350.392C160.495 350.784 156.147 350.208 153.369 347.974C151.613 346.563 152.186 346.497 159.945 347.22C164.62 347.656 171.145 348.02 174.445 348.029ZM320.605 351.296C321.312 356.7 321.603 357.288 322.917 355.974C324.013 354.878 322.179 346.546 320.842 346.546C320.37 346.546 320.263 348.683 320.605 351.296ZM148.614 363.901C157.545 369.678 160.793 372.905 163.837 379.025C166.062 383.499 166.189 384.605 165.647 394.867C165.198 403.391 164.711 406.098 163.505 406.772C162.647 407.252 161.959 408.411 161.977 409.346C162.006 410.913 162.114 410.908 163.351 409.276C164.532 407.72 164.845 408.478 165.945 415.545C166.633 419.965 167.476 423.756 167.82 423.969C168.164 424.181 168.441 413.74 168.437 400.766L168.429 377.178L173.217 371.939C177.567 367.179 192.47 356.546 194.792 356.546C195.67 356.546 197.945 361.703 197.945 363.695C197.945 364.163 197.072 364.546 196.004 364.546C192.904 364.546 192.631 366.378 195.678 366.728C198.314 367.031 198.575 367.563 201.184 377.936C202.69 383.925 204.629 393.375 205.493 398.936C206.357 404.496 207.72 411.872 208.523 415.327C210.181 422.463 209.45 425.025 205.54 425.773C202.46 426.361 201.316 425.672 200.154 422.526C197.885 416.385 197.879 414.686 200.115 412.603C202.526 410.356 201.919 408.493 199.445 410.546C198.593 411.253 197.57 411.504 197.171 411.105C196.772 410.706 196.284 404.986 196.088 398.394C195.778 388.005 195.936 386.451 197.272 386.728C198.12 386.903 198.956 386.596 199.129 386.046C199.303 385.496 198.475 384.908 197.289 384.739C195.977 384.552 194.893 383.476 194.52 381.989C194.128 380.427 193.193 379.546 191.926 379.546C190.252 379.546 189.945 380.227 189.945 383.936C189.945 386.35 190.845 392.7 191.945 398.046C194.561 410.76 194.912 445.499 192.445 447.546C191.62 448.231 190.945 449.172 190.945 449.637C190.945 450.102 191.62 450.224 192.445 449.908C194.271 449.207 194.386 450.568 192.695 452.851C191.162 454.919 180.876 456.943 176.278 456.081C173.064 455.478 172.958 455.312 173.51 451.75C174.235 447.079 172.258 443.994 169.17 444.975C166.225 445.909 165.515 448.978 167.38 452.716C168.245 454.451 168.688 456.135 168.363 456.458C168.039 456.782 164.47 457.046 160.432 457.046C148.21 457.046 145.667 453.741 144.378 436.182C143.862 429.148 143.983 426.546 144.827 426.546C146.958 426.546 159.883 421.149 160.287 420.091C160.507 419.516 160.286 416.129 159.798 412.564C159.309 408.998 159.139 405.484 159.419 404.754C159.825 403.694 158.569 403.556 153.187 404.066C144.1 404.929 142.428 403.755 143.865 397.519C145.024 392.491 145.253 385.512 144.338 383.128C143.668 381.382 140.412 380.982 139.457 382.527C139.123 383.067 138.787 387.605 138.709 392.613L138.567 401.718L135.756 401.305C131.979 400.751 132.147 402.436 135.945 403.196L138.945 403.796V413.171V422.546H134.964C131.513 422.546 130.896 422.201 130.332 419.951C129.698 417.425 131.628 393.869 132.597 392.3C132.865 391.867 133.552 391.803 134.126 392.158C134.699 392.512 135.561 392.182 136.041 391.424C137.431 389.23 137.083 388.187 135.421 389.566C134.583 390.262 133.615 390.549 133.27 390.204C132.684 389.618 135.453 363.785 136.64 358.758C137.133 356.673 137.369 356.594 139.313 357.867C140.486 358.635 144.671 361.351 148.614 363.901ZM129.569 363.085C129.226 363.978 129.023 368.16 129.117 372.378L129.29 380.046L129.894 371.046C130.547 361.329 130.518 360.612 129.569 363.085ZM167.222 363.714C165.318 365.618 164.846 365.709 163.343 364.464C161.774 363.163 161.872 362.994 164.539 362.414C169.316 361.376 169.48 361.455 167.222 363.714ZM139.335 366.154C137.851 369.706 138.138 371.806 139.856 369.979C140.961 368.805 142.323 362.546 141.473 362.546C141.127 362.546 140.165 364.17 139.335 366.154ZM185.945 363.464C185.945 365.08 187.134 367.546 187.913 367.546C188.328 367.546 188.453 366.421 188.19 365.046C187.743 362.708 185.945 361.441 185.945 363.464ZM145.945 372.465C145.945 373.422 152.864 374.96 153.647 374.177C153.921 373.903 153.894 373.273 153.587 372.776C152.869 371.613 145.945 371.332 145.945 372.465ZM191.945 373.046C191.238 373.898 190.885 374.819 191.16 375.094C191.435 375.369 192.238 374.898 192.945 374.046C193.652 373.194 194.005 372.273 193.73 371.998C193.455 371.723 192.652 372.194 191.945 373.046ZM178.386 374.078C180.86 375.949 181.945 375.939 181.945 374.046C181.945 373.069 180.987 372.557 179.195 372.578C176.561 372.608 176.527 372.672 178.386 374.078ZM136.945 377.429C136.945 378.444 141.098 379.727 141.872 378.952C142.519 378.305 139.868 376.582 138.195 376.561C137.508 376.553 136.945 376.944 136.945 377.429ZM151.462 383.159C149.97 386.73 150.145 388.892 151.772 386.979C153.48 384.969 154.844 380.602 153.938 380.041C153.425 379.725 152.311 381.128 151.462 383.159ZM173.945 384.046C173.945 385.676 174.505 386.546 175.552 386.546C176.607 386.546 176.95 386.002 176.552 384.964C176.218 384.094 175.945 382.969 175.945 382.464C175.945 381.959 175.495 381.546 174.945 381.546C174.395 381.546 173.945 382.671 173.945 384.046ZM184.518 383.067C182.181 384.836 182.742 385.673 185.739 384.89C186.952 384.572 187.945 383.69 187.945 382.929C187.945 381.18 186.961 381.219 184.518 383.067ZM279.551 382.961C279.885 383.833 280.476 384.546 280.863 384.546C281.251 384.546 282.582 385.491 283.823 386.647C285.063 387.802 286.293 388.531 286.557 388.267C286.821 388.003 285.216 386.345 282.99 384.582C280.651 382.729 279.199 382.045 279.551 382.961ZM277.061 385.214C276.997 385.857 276.654 387.207 276.298 388.214C275.796 389.635 275.929 389.79 276.892 388.902C277.574 388.273 277.918 386.923 277.655 385.902C277.392 384.881 277.125 384.572 277.061 385.214ZM141.634 390.296C141.383 391.258 141.177 390.471 141.177 388.546C141.177 386.621 141.383 385.834 141.634 386.796C141.886 387.758 141.886 389.334 141.634 390.296ZM336.945 390.546C336.945 393.296 337.358 395.546 337.862 395.546C339.2 395.546 339.534 393.923 339.111 389.484C338.571 383.827 336.945 384.624 336.945 390.546ZM159.06 388.939C157.748 389.666 157.073 390.487 157.56 390.764C158.781 391.459 164.157 389.092 163.302 388.236C162.373 387.307 161.847 387.394 159.06 388.939ZM280.024 388.836C279.795 394.016 286.324 401.633 297.959 409.76C310.133 418.264 315.659 425.918 318.546 438.275C319.856 443.88 319.924 445.969 318.941 450.403L317.754 455.76L315.99 452.861C312.886 447.756 308.206 444.546 303.868 444.546C301.71 444.546 299.959 444.883 299.977 445.296C300.027 446.47 302.945 450.05 302.945 448.937C302.945 448.392 302.405 447.406 301.745 446.746C300.812 445.813 301.135 445.546 303.198 445.546C307.54 445.546 310.258 447.372 313.703 452.601C317.148 457.831 316.956 458.624 312.918 455.844C310.675 454.3 310.569 454.296 311.785 455.805C312.522 456.72 313.992 457.743 315.05 458.079C317.896 458.982 316.318 460.546 312.56 460.546C308.823 460.546 305.333 457.446 303.979 452.927C303.364 450.873 303.093 450.62 303.035 452.046C302.906 455.171 306.615 460.425 309.451 461.137C310.863 461.491 313.24 461.537 314.733 461.238C317.403 460.704 317.442 460.769 317.088 465.213C316.891 467.697 317.228 470.229 317.837 470.838C318.648 471.649 318.945 470.668 318.945 467.184C318.945 464.565 319.686 460.156 320.592 457.387C322.009 453.056 322.076 451.215 321.076 444.2C319.548 433.473 319.583 425.546 321.159 425.546C321.591 425.546 321.945 424.669 321.945 423.597C321.945 419.05 335.324 412.736 340.865 414.668C342.536 415.25 344.475 415.497 345.174 415.215C345.873 414.934 345.432 414.668 344.195 414.625C341.531 414.531 341.197 412.907 343.695 412.191C344.657 411.915 343.758 411.933 341.695 412.229C337.41 412.845 336.962 411.816 340.195 408.787C343.264 405.912 347.23 404.546 352.51 404.546C357.842 404.546 358.129 405.593 353.484 408.095C351.581 409.12 350.208 410.142 350.432 410.366C351.239 411.173 357.945 406.351 357.945 404.964C357.945 403.917 356.571 403.552 352.695 403.568C345.76 403.597 339.126 406.607 337.706 410.368C336.898 412.508 335.615 413.491 332.538 414.326C324.699 416.455 319.543 420.804 317.459 427.046C316.849 428.871 316.656 428.783 315.257 426.046C313.103 421.834 304.542 413.203 297.445 408.088C294.145 405.71 290.448 402.703 289.229 401.405C288.01 400.108 286.115 398.198 285.017 397.162C283.92 396.125 282.365 393.425 281.562 391.162C280.76 388.898 280.067 387.851 280.024 388.836ZM287.509 390.839C287.885 391.825 288.444 392.38 288.752 392.072C289.06 391.765 288.753 390.958 288.069 390.279C287.081 389.299 286.967 389.414 287.509 390.839ZM179.127 396.046C178.192 398.099 178.252 398.546 179.466 398.546C180.28 398.546 180.945 398.133 180.945 397.628C180.945 397.123 181.218 395.998 181.552 395.128C182.555 392.515 180.357 393.347 179.127 396.046ZM289.024 395.129C289.072 396.294 289.309 396.531 289.628 395.734C289.917 395.012 289.881 394.149 289.549 393.817C289.217 393.485 288.981 394.075 289.024 395.129ZM202.281 396.113C201.95 396.975 202.189 398.19 202.812 398.813C203.656 399.657 203.945 399.257 203.945 397.246C203.945 394.237 203.196 393.728 202.281 396.113ZM186.571 399.097C187.736 400.876 188.56 401.331 189.29 400.601C190.02 399.871 189.748 399.107 188.391 398.082C185.44 395.85 184.71 396.257 186.571 399.097ZM279.966 398.228C279.978 398.678 281.891 400.378 284.216 402.006C286.542 403.634 287.81 404.175 287.034 403.209C285.154 400.87 279.939 397.194 279.966 398.228ZM149.135 400.164C150.026 401.056 151.293 401.449 151.956 401.039C153.356 400.174 151.451 398.587 148.981 398.561C147.76 398.549 147.785 398.815 149.135 400.164ZM170.974 401.507C170.165 402.019 169.735 402.669 170.018 402.952C170.792 403.727 174.945 402.444 174.945 401.429C174.945 400.282 172.845 400.323 170.974 401.507ZM124.053 407.502C123.325 410.341 122.941 412.876 123.199 413.134C123.871 413.805 126.241 404.935 125.769 403.519C125.553 402.87 124.781 404.662 124.053 407.502ZM151.472 407.197L155.699 406.618L156.891 412.679C157.547 416.013 157.94 418.849 157.764 418.981C156.126 420.217 147.909 423.542 145.945 423.764C143.492 424.041 143.434 423.886 142.85 415.546C142.523 410.871 142.438 406.707 142.661 406.293C142.884 405.879 144.007 406.044 145.156 406.659C146.333 407.289 149.09 407.524 151.472 407.197ZM132.96 409.796C132.981 411.469 134.704 414.12 135.351 413.473C136.126 412.699 134.843 408.546 133.828 408.546C133.343 408.546 132.952 409.109 132.96 409.796ZM176.96 410.296C176.988 411.665 178.827 413.998 179.414 413.41C180.202 412.622 178.947 409.546 177.838 409.546C177.347 409.546 176.952 409.883 176.96 410.296ZM346.758 411.229C347.479 411.518 348.342 411.482 348.674 411.15C349.006 410.818 348.416 410.582 347.362 410.625C346.197 410.673 345.96 410.91 346.758 411.229ZM188.244 414.438C187.594 415.479 187.315 416.582 187.623 416.891C188.337 417.605 190.945 415.036 190.945 413.617C190.945 411.935 189.541 412.361 188.244 414.438ZM350.758 415.229C351.479 415.518 352.342 415.482 352.674 415.15C353.006 414.818 352.416 414.582 351.362 414.625C350.197 414.673 349.96 414.91 350.758 415.229ZM135.094 418.217C133.231 420.232 134.616 421.303 136.565 419.355C137.429 418.49 137.756 417.552 137.291 417.269C136.826 416.987 135.837 417.413 135.094 418.217ZM205.131 420.601C203.858 421.111 203.098 421.984 203.441 422.54C204.178 423.732 207.945 422.035 207.945 420.511C207.945 419.98 207.832 419.575 207.695 419.609C207.558 419.644 206.404 420.09 205.131 420.601ZM174.974 421.507C174.165 422.019 173.735 422.669 174.018 422.952C174.792 423.727 178.945 422.444 178.945 421.429C178.945 420.282 176.845 420.323 174.974 421.507ZM123.976 422.046C123.976 422.596 124.412 423.721 124.945 424.546C125.478 425.371 125.914 425.596 125.914 425.046C125.914 424.496 125.478 423.371 124.945 422.546C124.412 421.721 123.976 421.496 123.976 422.046ZM324.758 422.229C325.479 422.518 326.342 422.482 326.674 422.15C327.006 421.818 326.416 421.582 325.362 421.625C324.197 421.673 323.96 421.91 324.758 422.229ZM160.74 427.027C159.178 429.113 159.264 430.546 160.951 430.546C161.971 430.546 163.973 425.68 163.157 425.185C162.766 424.947 161.678 425.776 160.74 427.027ZM211.758 428.229C212.479 428.518 213.342 428.482 213.674 428.15C214.006 427.818 213.416 427.582 212.362 427.625C211.197 427.673 210.96 427.91 211.758 428.229ZM183.945 429.999C183.945 431.275 186.379 435.546 187.106 435.546C188.207 435.546 188.168 435.13 186.784 432.093C185.797 429.925 183.945 428.56 183.945 429.999ZM200.945 429.929C200.945 430.817 204.991 431.281 205.503 430.452C205.811 429.954 204.911 429.546 203.504 429.546C202.097 429.546 200.945 429.719 200.945 429.929ZM147.945 434.305C147.945 435.399 152.03 437.794 152.719 437.105C153.038 436.786 152.432 435.869 151.372 435.067C149.226 433.444 147.945 433.159 147.945 434.305ZM168.945 434.492C168.945 435.558 174.827 436.998 175.683 436.141C176.539 435.286 175.864 434.913 172.195 434.215C170.407 433.874 168.945 433.999 168.945 434.492ZM158.945 442.546C160.002 444.521 161.945 445.298 161.945 443.746C161.945 442.694 159.773 440.546 158.71 440.546C158.25 440.546 158.356 441.446 158.945 442.546ZM179.977 446.485C179.346 447.665 179.305 448.651 179.873 449.002C180.853 449.607 181.236 449.173 182.259 446.296C183.106 443.917 181.27 444.069 179.977 446.485ZM170.945 450.105C170.945 451.556 170.512 452.397 169.945 452.046C169.395 451.706 168.945 450.555 168.945 449.487C168.945 448.419 169.395 447.546 169.945 447.546C170.495 447.546 170.945 448.698 170.945 450.105ZM196.628 449.734C196.309 450.531 196.072 450.294 196.024 449.129C195.981 448.075 196.217 447.485 196.549 447.817C196.881 448.149 196.917 449.012 196.628 449.734ZM305.945 449.924C305.945 450.131 306.733 450.919 307.695 451.674C309.281 452.917 309.316 452.882 308.073 451.296C306.766 449.63 305.945 449.101 305.945 449.924ZM150.945 452.046C150.238 452.898 149.885 453.819 150.16 454.094C150.435 454.369 151.238 453.898 151.945 453.046C152.652 452.194 153.005 451.273 152.73 450.998C152.455 450.723 151.652 451.194 150.945 452.046ZM183.945 465.249C180.632 465.868 175.941 470.372 176.66 472.244C176.97 473.052 178.173 474.097 179.334 474.566C181.418 475.408 181.419 475.42 179.395 475.483C178.267 475.517 176.805 475.006 176.145 474.346C175.212 473.413 174.945 473.608 174.945 475.224C174.945 476.947 176.051 477.581 181.401 478.924C189.934 481.068 197.27 480.97 211.596 478.519C224.858 476.251 228.996 476.031 250.445 476.456C258.695 476.619 266.422 476.369 267.616 475.9C268.902 475.394 259.935 475.068 245.616 475.099C225.494 475.144 219.211 475.525 208.111 477.373C199.168 478.862 193.077 479.377 189.611 478.939C181.892 477.961 180.667 476.843 186.485 476.084C195.313 474.932 195.945 474.673 195.945 472.201C195.945 467.713 189.804 464.155 183.945 465.249ZM151.945 471.046C150.079 472.971 148.978 474.583 149.499 474.628C152.511 474.89 156.48 475.756 156.927 476.248C157.212 476.562 156.207 476.595 154.695 476.321C153.183 476.047 151.945 476.153 151.945 476.557C151.945 478.193 163.142 478.605 167.695 477.137C173.456 475.279 166.901 467.546 159.564 467.546C156.046 467.546 154.768 468.133 151.945 471.046ZM355.445 470.737C352.145 471.258 343.82 471.475 336.945 471.22C327.466 470.868 325.412 470.994 328.445 471.741C333.562 473.001 362.799 472.092 364.264 470.627C365.547 469.344 364.159 469.361 355.445 470.737ZM298.03 476.601C293.812 479.371 293.209 479.482 284.53 479.084L275.445 478.666L284.759 479.716L294.073 480.765L299.061 477.665L304.048 474.565L308.747 476.924C312.687 478.904 315.435 479.364 325.778 479.776C332.665 480.05 337.522 479.894 336.778 479.422C336.045 478.957 330.909 478.57 325.364 478.561C316.615 478.548 314.634 478.216 310.364 476.05C304.283 472.965 303.515 472.999 298.03 476.601ZM111.445 476.546L94.4451 477.12L115.695 477.333C129.337 477.47 136.945 477.188 136.945 476.546C136.945 475.996 135.032 475.642 132.695 475.759C130.358 475.877 120.795 476.231 111.445 476.546Z" fill="black" />
</svg>